<?xml version="1.0" encoding="utf-8"?>
<!-- Generator: Adobe Illustrator 19.1.0, SVG Export Plug-In . SVG Version: 6.00 Build 0)  -->
<svg version="1.1" id="Capa_1" xmlns="http://www.w3.org/2000/svg" xmlns:xlink="http://www.w3.org/1999/xlink" x="0px" y="0px"
	 viewBox="-247 383.6 100 75.3" style="enable-background:new -247 383.6 100 75.3;" xml:space="preserve">
<style type="text/css">
	.st0{fill:none;stroke:#000000;stroke-width:0.25;stroke-miterlimit:10;}
</style>
<g id="left">
	<path class="st0" d="M-472.1,801.7v-0.1v-0.1c0-10,0.9-23.1,8.5-23.1c7.2,0,8.3,7.7,8.5,17.7c0.1,0,0.3,0,0.4,0h2.5
		c1.9,0,3.4,1.2,3.4,2.8v5.1c0,1.6-1.5,2.8-3.4,2.8h-2.5c-1.9,0-3.4-1.2-3.4-2.8v-2.2c0-12.6-0.3-20.3-5.5-20.3
		c-2.1,0-5.5,2.6-5.5,20.3c0,4.8,1.9,7.6,4,10.8c2.6,3.9,5.5,8.4,5.5,17.1c0,0.8-0.7,1.5-1.5,1.5s-1.5-0.7-1.5-1.5
		c0-7.9-2.6-11.7-5-15.5C-469.8,810.9-472.1,807.4-472.1,801.7L-472.1,801.7C-472.1,801.8-472.1,801.7-472.1,801.7z"/>
</g>
<g id="right">
	<path class="st0" d="M-415.6,801.7v-0.1v-0.1c0-10-0.9-23.1-8.5-23.1c-7.2,0-8.3,7.7-8.5,17.7c-0.1,0-0.3,0-0.4,0h-2.5
		c-1.9,0-3.4,1.2-3.4,2.8v5.1c0,1.6,1.5,2.8,3.4,2.8h2.5c1.9,0,3.4-1.2,3.4-2.8v-2.2c0-12.6,0.3-20.3,5.5-20.3
		c2.1,0,5.5,2.6,5.5,20.3c0,4.8-1.9,7.6-4,10.8c-2.6,3.9-5.5,8.4-5.5,17.1c0,0.8,0.7,1.5,1.5,1.5s1.5-0.7,1.5-1.5
		c0-7.9,2.6-11.7,5-15.5C-417.9,810.9-415.6,807.4-415.6,801.7L-415.6,801.7C-415.6,801.8-415.6,801.7-415.6,801.7z"/>
</g>
</svg>
