<?xml version="1.0" encoding="utf-8"?>
<!-- Generator: Adobe Illustrator 19.1.0, SVG Export Plug-In . SVG Version: 6.00 Build 0)  -->
<svg version="1.1" xmlns="http://www.w3.org/2000/svg" xmlns:xlink="http://www.w3.org/1999/xlink" x="0px" y="0px"
	 viewBox="-257 370.9 80 100" style="enable-background:new -257 370.9 80 100;" xml:space="preserve">
<style type="text/css">
	.st0{fill:none;stroke:#000000;stroke-miterlimit:10;}
</style>
<g id="right">
	<g id="left_1_">
		<g>
			<path class="st0" d="M-202.2,451.3c1.6,0,3-1.3,3-3v-30.5c0-1.9,1.8-3.3,3.7-2.8c0,0,0,0,0.1,0c2.5,0.6,5.1,0.1,8.2-1.5
				s5.5-4,6-4.7c0.6-0.9,0.3-10.7,0.3-11s-1-1.5-1.8-2.3s-5.2-5.1-10.9-5.1c-4,0-8,2.7-10,5.5c-2.5,3.5-3.3,5.9-3.6,7.2
				c-0.3,1.3-1.1,4.5-1.4,8.6s-0.2,5.6-0.2,6.9v29.7c0,1.6,1.3,3,3,3L-202.2,451.3L-202.2,451.3z M-198.9,394.5
				c-0.4,0.5-0.8,1-1.2,1.5c-0.6,0.7-1.7,2-2.7,1.6c-0.7-0.3-0.5-1-0.2-1.4c0.4-0.6,0.9-1.2,1.4-1.7c0.3-0.3,0.7-0.8,1.2-1.1
				c0.4-0.3,0.9-0.5,1.4-0.3C-198.4,393.3-198.8,394.1-198.9,394.5z M-188,404.2c-0.7,0-1.3-0.6-1.3-1.3c0-0.7,0.6-1.3,1.3-1.3
				s1.3,0.6,1.3,1.3S-187.3,404.2-188,404.2z"/>
		</g>
	</g>
</g>
<g id="left_2_">
	<g id="left">
		<g>
			<path class="st0" d="M-228.2,451.3c1.6,0,3-1.3,3-3v-29.7c0-1.3,0.1-2.8-0.2-6.9s-1.1-7.3-1.4-8.6c-0.3-1.3-1.1-3.7-3.6-7.2
				c-2-2.8-6-5.5-10-5.5c-5.7,0-10.1,4.3-10.9,5.1c-0.8,0.8-1.8,2-1.8,2.3s-0.3,10.1,0.3,11c0.5,0.7,2.9,3.1,6,4.7s5.7,2.1,8.2,1.5
				c0,0,0,0,0.1,0c1.9-0.5,3.7,0.9,3.7,2.8v30.5c0,1.6,1.3,3,3,3L-228.2,451.3L-228.2,451.3z M-235.1,393.1c0.5-0.2,1,0,1.4,0.3
				c0.5,0.3,0.9,0.8,1.2,1.1c0.5,0.5,1,1.1,1.4,1.7c0.3,0.4,0.5,1.1-0.2,1.4c-1,0.4-2.1-0.9-2.7-1.6c-0.4-0.5-0.8-1-1.2-1.5
				C-235.3,394.1-235.7,393.3-235.1,393.1z M-247.4,402.9c0-0.7,0.6-1.3,1.3-1.3s1.3,0.6,1.3,1.3c0,0.7-0.6,1.3-1.3,1.3
				S-247.4,403.6-247.4,402.9z"/>
		</g>
	</g>
</g>
</svg>
