<?xml version="1.0" encoding="utf-8"?>
<!-- Generator: Adobe Illustrator 19.1.0, SVG Export Plug-In . SVG Version: 6.00 Build 0)  -->
<svg version="1.1" xmlns="http://www.w3.org/2000/svg" xmlns:xlink="http://www.w3.org/1999/xlink" x="0px" y="0px"
	 viewBox="-257 370.9 80 100" style="enable-background:new -257 370.9 80 100;" xml:space="preserve">
<style type="text/css">
	.st0{fill:none;stroke:#000000;stroke-miterlimit:10;}
</style>
<g id="left">
	<g>
		<path class="st0" d="M-249.9,407.8c0.5,0.7,2.9,3.1,6,4.7c3.1,1.6,5.7,2.1,8.2,1.5c2.5-0.6,3.8-1.9,3.8-1.9s0,36.4,0,38.2
			c0,0,0,0,0,0h9.6c0-1.2,0-31.4,0-32.7c0-1.3,0.1-2.8-0.2-6.9c-0.3-4.1-1.1-7.3-1.4-8.6c-0.3-1.3-1.1-3.7-3.6-7.2
			c-2-2.8-6-5.5-10-5.5c-5.7,0-10.1,4.3-10.9,5.1c-0.8,0.8-1.8,2-1.8,2.3S-250.5,406.9-249.9,407.8z M-225,407.9
			c0-0.3,0.2-0.6,0.5-0.6c0.3,0,0.5,0.3,0.5,0.6s-0.2,0.6-0.5,0.6C-224.8,408.5-225,408.3-225,407.9z M-232.2,392.1
			c0.5-0.2,1,0,1.4,0.3c0.5,0.3,0.9,0.8,1.2,1.1c0.5,0.5,1,1.1,1.4,1.7c0.3,0.4,0.5,1.1-0.2,1.4c-1,0.4-2.1-0.9-2.7-1.6
			c-0.4-0.5-0.8-1-1.2-1.5C-232.4,393.1-232.8,392.3-232.2,392.1z M-244.5,401.9c0-0.7,0.6-1.3,1.3-1.3c0.7,0,1.3,0.6,1.3,1.3
			c0,0.7-0.6,1.3-1.3,1.3S-244.5,402.6-244.5,401.9z M-250,405.2c0-0.5,0-7.1,0-7.4c0-0.2,0-0.8,0.1-0.8s0.2,0.3,0.2,1.8
			c0,0.5,0,6.3,0,6.5s0,1.3-0.2,1.3S-250,405.7-250,405.2z"/>
		<path class="st0" d="M-222.3,450.6h-9.6c0.1,1.6,1.4,1.8,1.7,1.8c0.4,0,5,0,6.2,0C-222.9,452.4-222.4,451.2-222.3,450.6z"/>
	</g>
</g>
<g id="right">
	<g>
		<path class="st0" d="M-183.8,396.8c0-0.4-1-1.6-1.8-2.3c-0.8-0.8-5.3-5.1-10.9-5.1c-4,0-8,2.7-10,5.5c-2.5,3.6-3.2,6-3.6,7.2
			c-0.3,1.3-1.1,4.6-1.4,8.6c-0.3,4.1-0.2,5.6-0.2,6.9c0,1.3,0,31.5,0,32.7h9.6c0,0,0,0,0,0c0-1.8,0-38.2,0-38.2s1.2,1.4,3.8,1.9
			c2.5,0.6,5.1,0.1,8.2-1.5c3.1-1.6,5.5-3.9,6-4.7C-183.5,406.9-183.8,397.2-183.8,396.8z M-209.5,408.5c-0.3,0-0.5-0.3-0.5-0.6
			s0.2-0.6,0.5-0.6c0.3,0,0.5,0.3,0.5,0.6S-209.2,408.5-209.5,408.5z M-201.8,393.4c-0.3,0.5-0.8,1-1.2,1.5c-0.6,0.8-1.7,2-2.7,1.6
			c-0.6-0.3-0.4-0.9-0.2-1.4c0.4-0.6,0.9-1.2,1.4-1.7c0.3-0.4,0.8-0.8,1.2-1.1c0.4-0.3,0.9-0.5,1.4-0.3
			C-201.2,392.3-201.6,393.1-201.8,393.4z M-190.8,403.2c-0.7,0-1.3-0.6-1.3-1.3c0-0.7,0.6-1.3,1.3-1.3c0.7,0,1.3,0.6,1.3,1.3
			C-189.5,402.6-190,403.2-190.8,403.2z M-184.1,406.7c-0.1,0-0.2-1.1-0.2-1.3s0-6,0-6.5c0-1.5,0.1-1.8,0.2-1.8s0.1,0.6,0.1,0.8
			c0,0.2,0,6.9,0,7.4C-184,405.7-184,406.7-184.1,406.7z"/>
		<path class="st0" d="M-210,452.4c1.1,0,5.8,0,6.2,0c0.4,0,1.6-0.2,1.7-1.8h-9.6C-211.6,451.2-211.1,452.4-210,452.4z"/>
	</g>
</g>
</svg>
